<svg width="179" height="179" viewBox="0 0 179 179" fill="none" xmlns="http://www.w3.org/2000/svg">
<rect width="179" height="179" rx="20" fill="#3b82f6"/>
<g clip-path="url(#clip0_309_2)">
<path d="M81.6735 75.7871C89.5269 75.7871 89.5399 63.582 81.6735 63.582C73.8202 63.582 73.8072 75.7871 81.6735 75.7871Z" fill="white"/>
<path d="M97.3671 75.7871C105.22 75.7871 105.233 63.582 97.3671 63.582C89.5137 63.582 89.5007 75.7871 97.3671 75.7871Z" fill="white"/>
<path d="M50.8796 144.562C53.4055 129.105 56.7681 113.794 61.0095 98.7161C65.1163 84.117 69.7146 69.3038 75.8545 55.4149C77.8956 50.7978 80.4754 45.4518 84.9119 42.6966C89.4914 39.8526 94.9166 41.3755 98.937 44.5304C103.89 48.417 106.579 54.6293 108.642 60.3986C111.261 67.7256 113.505 75.2059 115.623 82.6911C120.566 100.161 124.386 117.93 127.127 135.877C127.625 139.137 131.723 140.939 134.634 140.139C138.118 139.181 139.395 135.903 138.896 132.632C136.243 115.264 132.58 98.0635 127.867 81.1375C125.535 72.7618 123.067 64.3654 120.067 56.2012C117.445 49.0686 114.101 41.8299 108.389 36.6146C102.47 31.2101 94.5572 27.9914 86.5024 29.2857C79.5398 30.4045 74.1088 35.0096 70.1182 40.5942C65.8232 46.6048 63.3179 53.8123 60.7182 60.6623C57.7368 68.518 54.9935 76.4637 52.4953 84.4862C46.7022 103.089 42.2527 122.089 39.1105 141.317C38.5795 144.566 39.9561 147.885 43.3727 148.824C46.2872 149.625 50.345 147.833 50.8796 144.562V144.562Z" fill="white"/>
</g>
<defs>
<clipPath id="clip0_309_2">
<rect width="100" height="120.014" fill="white" transform="translate(39 29)"/>
</clipPath>
</defs>
</svg>
